# xmcd
#
# Track frame offsets:
#	150
#	19907
#	40904
#	57398
#	75214
#	96809
#	111711
#	130323
#	149075
#	162178
#	183781
#	202182
#	225469
#	242878
#
# Disc length: 3558 seconds
#
# Revision: 0
# Processed by: cddbd v1.4PL0 Copyright (c) Steve Scherf et al.
# Submitted via: dBpowerAMP V4.0
#
DISCID=c40de40e
DTITLE=Petula Clark - A sign of the times
DYEAR=2001
DGENRE=
TTITLE0=A Sign of the Times
TTITLE1=I'm Not Afraid
TTITLE2=At Last
TTITLE3=Downtown
TTITLE4=I Dreamed a Dream
TTITLE5=Don't Give Up
TTITLE6=I Need to be in Love
TTITLE7=The Wedding Song (There is Love)
TTITLE8=With one Look
TTITLE9=Celebrate
TTITLE10=I Couldn't Live without Your Love
TTITLE11=Here For You
TTITLE12=Look for the Silver Lining
TTITLE13=Vivre
EXTD=
EXTT0=
EXTT1=
EXTT2=
EXTT3=
EXTT4=
EXTT5=
EXTT6=
EXTT7=
EXTT8=
EXTT9=
EXTT10=
EXTT11=
EXTT12=
EXTT13=
PLAYORDER=
